<svg xmlns="http://www.w3.org/2000/svg" viewBox="0 0 200 200" fill="none">
  <circle cx="100" cy="100" r="78" stroke="#2E4A2F" stroke-width="2.5"/>
  <circle cx="163" cy="55" r="2.6" fill="#2E4A2F"/>
  <circle cx="172" cy="64" r="2.2" fill="#4F6B45"/>
  <circle cx="179" cy="74" r="1.8" fill="#8B9460"/>
  <text x="100" y="120" text-anchor="middle" font-family="'Cormorant Garamond', Georgia, serif" font-size="96" font-weight="600" fill="#2E4A2F">A</text>
  <path d="M62 126c14-3 25-13 25-13s-7 16-23 23c-10 4-25 2-25 2s9-9 23-12z" fill="#8B9460"/>
  <path d="M41 137c13 0 27 6 27 6s-14 11-28 9c-9-1-18-9-18-9s9-6 19-6z" fill="#6E8151"/>
  <path d="M31 150c11-2 25 2 25 2s-11 9-23 9c-8 0-17-5-17-5s6-4 15-6z" fill="#8B9460"/>
  <path d="M108 150c0-24 18-42 40-42s40 18 40 42v4h-80v-4z" fill="none" stroke="#2E4A2F" stroke-width="2.5"/>
  <path d="M104 154h88v16a6 6 0 0 1-6 6h-76a6 6 0 0 1-6-6v-16z" fill="none" stroke="#2E4A2F" stroke-width="2.5"/>
</svg>
